<?xml version="1.0" encoding="UTF-8" standalone="no"?>
<!-- Created with Inkscape (http://www.inkscape.org/) -->

<svg
   width="200"
   height="200"
   viewBox="0 0 52.916666 52.916666"
   version="1.1"
   id="svg1"
   inkscape:version="1.3 (0e150ed6c4, 2023-07-21)"
   sodipodi:docname="liecorp-sq-light.svg"
   xmlns:inkscape="http://www.inkscape.org/namespaces/inkscape"
   xmlns:sodipodi="http://sodipodi.sourceforge.net/DTD/sodipodi-0.dtd"
   xmlns="http://www.w3.org/2000/svg"
   xmlns:svg="http://www.w3.org/2000/svg">
  <sodipodi:namedview
     id="namedview1"
     pagecolor="#ffffff"
     bordercolor="#000000"
     borderopacity="0.25"
     inkscape:showpageshadow="2"
     inkscape:pageopacity="0.0"
     inkscape:pagecheckerboard="0"
     inkscape:deskcolor="#d1d1d1"
     inkscape:document-units="px"
     inkscape:zoom="1.5575271"
     inkscape:cx="93.738335"
     inkscape:cy="97.590595"
     inkscape:window-width="1366"
     inkscape:window-height="726"
     inkscape:window-x="0"
     inkscape:window-y="42"
     inkscape:window-maximized="1"
     inkscape:current-layer="g1124" />
  <defs
     id="defs1" />
  <g
     inkscape:label="Layer 1"
     inkscape:groupmode="layer"
     id="layer1">
    <g
       id="g1"
       transform="matrix(3.9687083,0,0,3.9687083,-743.20719,-225.47696)">
      <g
         id="g1124"
         transform="matrix(0.999032,0,0,1,94.516362,110.38155)"
         style="display:inline">
        <g
           id="g2"
           transform="matrix(0.88889822,0,0,0.88889822,11.056181,-5.2107417)">
          <path
             inkscape:connector-curvature="0"
             id="rect14508-84-3-1-3-7-5-1"
             d="m 93.507599,-52.901188 v 1.339419 9.331495 1.328056 10e-4 h 0.01147 l 0.98802,-0.878481 v -1.339415 -7.553874 -1.339418 z m 11.999901,0 -1.12548,1.000431 -4.874989,4.334509 -3.999622,-3.557316 v 1.34045 l 3.247237,2.886573 -3.247237,2.887609 v 1.338387 l 3.999622,-3.556281 4.864659,4.325209 1.12444,1.000429 h 0.0115 v -9.99e-4 -1.328056 -9.331495 z m -1.00042,2.229265 v 7.551805 l -4.24663,-3.776423 z"
             style="color:#000000;display:inline;overflow:visible;opacity:0.98;fill:#020202;fill-opacity:0.988235;fill-rule:evenodd;stroke:none;stroke-width:1.19996;stroke-linecap:round" />
          <path
             inkscape:connector-curvature="0"
             style="color:#000000;display:inline;overflow:visible;opacity:0.97;fill:#a3b2c8;fill-opacity:0.381443;fill-rule:evenodd;stroke:none;stroke-width:0.499999;stroke-linecap:round;stroke-opacity:1"
             d="m 105.50738,-52.087845 -10.000419,8.867159 v 0.549836 l 3.999753,-3.556371 4.864816,4.325316 1.12448,1.000456 h 0.0114 v -0.0011 -1.328084 -9.331213 z m -1.00045,1.415934 v 7.551475 l -4.24677,-3.776511 z m -9.999908,8.337476 -0.999424,0.886251 v 0.545703 0.0011 h 0.01138 l 0.988055,-0.878499 z"
             id="rect966-5-3-9" />
        </g>
      </g>
    </g>
  </g>
</svg>
